{"title":"Prometheus.2012.HD.CAM.NEW.SOURCE.XviD-XTREME","uid":7352886,"size":1513429046,"categoryP":"video","categoryS":"movies","magnet":"?xt=urn:btih:f9a04d32d80e277be33d78198e8073fe35859082&amp;dn=Prometheus.2012.HD.CAM.NEW.SOURCE.XviD-XTREME&amp;tr=udp%3A%2F%2Ftracker.openbittorrent.com%3A80&amp;tr=udp%3A%2F%2Fopen.demonii.com%3A1337&amp;tr=udp%3A%2F%2Ftracker.coppersurfer.tk%3A6969&amp;tr=udp%3A%2F%2Fexodus.desync.com%3A6969","seeders":0,"leechers":0,"uploader":"tykoon123","files":3,"time":1339666998,"description":"Plot:\nA team of explorers discover a clue to the origins of mankind on Earth, leading them on a journey to the darkest corners of the universe. There, they must fight a terrifying battle to save the future of the human race.\n\nFormat : AVI\nFormat/Info : Audio Video Interleave\nFile size : 1.40 GiB\nDuration : 1h 50mn\nOverall bit rate : 1 824 Kbps\nWriting application : VirtualDubMod 1.5.10.2 (build 2540/release)\nWriting library : VirtualDubMod build 2540/release\n\nVideo\nID : 0\nFormat : MPEG-4 Visual\nFormat profile : Advanced Simple@L5\nFormat settings, BVOP : 2\nFormat settings, QPel : No\nFormat settings, GMC : No warppoints\nFormat settings, Matrix : Default (H.263)\nMuxing mode : Packed bitstream\nCodec ID : XVID\nCodec ID/Hint : XviD\nDuration : 1h 50mn\nBit rate : 1 686 Kbps\nWidth : 720 pixels\nHeight : 304 pixels\nDisplay aspect ratio : 2.35:1\nFrame rate : 25.000 fps\nColor space : YUV\nChroma subsampling : 4:2:0\nBit depth : 8 bits\nScan type : Progressive\nCompression mode : Lossy\nBits/(Pixel*Frame) : 0.308\nStream size : 1.30 GiB (92%)\nWriting library : XviD 64\n\nAudio\nID : 1\nFormat : MPEG Audio\nFormat version : Version 1\nFormat profile : Layer 3\nCodec ID : 55\nCodec ID/Hint : MP3\nDuration : 1h 49mn\nBit rate mode : Constant\nBit rate : 128 Kbps\nChannel(s) : 2 channels\nSampling rate : 44.1 KHz\nCompression mode : Lossy\nStream size : 101 MiB (7%)\nAlignment : Split accross interleaves\nInterleave, duration : 40 ms (1.00 video frame)\nInterleave, preload duration : 500 ms\n\n\nSubs: Arabic subs at start\n\nSCREENS: &lt;a href=&quot;\nhttp://img233.imageshack.us/img233/2315/vlcsnap2012061405h45m32.png&quot; rel=&quot;nofollow&quot; target=&quot;_NEW&quot;&gt;\nhttp://img233.imageshack.us/img233/2315/vlcsnap2012061405h45m32.png&lt;/a&gt; &lt;a href=&quot;\nhttp://img85.imageshack.us/img85/1295/vlcsnap2012061405h49m56.png&quot; rel=&quot;nofollow&quot; target=&quot;_NEW&quot;&gt;\nhttp://img85.imageshack.us/img85/1295/vlcsnap2012061405h49m56.png&lt;/a&gt; &lt;a href=&quot;\nhttp://img152.imageshack.us/img152/3065/vlcsnap2012061405h47m32.png&quot; rel=&quot;nofollow&quot; target=&quot;_NEW&quot;&gt;\nhttp://img152.imageshack.us/img152/3065/vlcsnap2012061405h47m32.png&lt;/a&gt; &lt;a href=&quot;\nhttp://img208.imageshack.us/img208/4016/vlcsnap2012061406h27m56.png&quot; rel=&quot;nofollow&quot; target=&quot;_NEW&quot;&gt;\nhttp://img208.imageshack.us/img208/4016/vlcsnap2012061406h27m56.png&lt;/a&gt; &lt;a href=&quot;\nhttp://img440.imageshack.us/img440/5206/vlcsnap2012061405h54m07.png&quot; rel=&quot;nofollow&quot; target=&quot;_NEW&quot;&gt;\nhttp://img440.imageshack.us/img440/5206/vlcsnap2012061405h54m07.png&lt;/a&gt;","torrent":{"xt":"urn:btih:f9a04d32d80e277be33d78198e8073fe35859082","amp;dn":"Prometheus.2012.HD.CAM.NEW.SOURCE.XviD-XTREME","amp;tr":["udp%3A%2F%2Ftracker.openbittorrent.com%3A80","udp%3A%2F%2Fopen.demonii.com%3A1337","udp%3A%2F%2Ftracker.coppersurfer.tk%3A6969","udp%3A%2F%2Fexodus.desync.com%3A6969"],"infoHash":"f9a04d32d80e277be33d78198e8073fe35859082","infoHashBuffer":{"type":"Buffer","data":[249,160,77,50,216,14,39,123,227,61,120,25,142,128,115,254,53,133,144,130]},"announce":[],"urlList":[]}}